<svg width="16" height="16" viewBox="0 0 16 16" fill="none" xmlns="http://www.w3.org/2000/svg">
<path d="M15.6401 6.99225L14.5524 5.72857C14.3444 5.48863 14.1765 5.04074 14.1765 4.72082V3.36116C14.1765 2.51337 13.4806 1.81755 12.6328 1.81755H11.2732C10.9613 1.81755 10.5054 1.64959 10.2654 1.44164L9.00175 0.353912C8.44989 -0.11797 7.54611 -0.11797 6.98625 0.353912L5.73057 1.44964C5.49063 1.64959 5.03474 1.81755 4.72282 1.81755H3.33917C2.49138 1.81755 1.79555 2.51337 1.79555 3.36116V4.72882C1.79555 5.04074 1.62759 5.48863 1.42764 5.72857L0.347913 7.00025C-0.115971 7.55211 -0.115971 8.44789 0.347913 8.99975L1.42764 10.2714C1.62759 10.5114 1.79555 10.9593 1.79555 11.2712V12.6388C1.79555 13.4866 2.49138 14.1825 3.33917 14.1825H4.72282C5.03474 14.1825 5.49063 14.3504 5.73057 14.5584L6.99425 15.6461C7.54611 16.118 8.44989 16.118 9.00975 15.6461L10.2734 14.5584C10.5134 14.3504 10.9613 14.1825 11.2812 14.1825H12.6408C13.4886 14.1825 14.1845 13.4866 14.1845 12.6388V11.2792C14.1845 10.9673 14.3524 10.5114 14.5604 10.2714L15.6481 9.00775C16.112 8.45589 16.112 7.54411 15.6401 6.99225ZM11.3212 6.48838L7.45814 10.3514C7.34616 10.4634 7.1942 10.5274 7.03424 10.5274C6.87428 10.5274 6.72232 10.4634 6.61035 10.3514L4.67483 8.4159C4.44289 8.18395 4.44289 7.80005 4.67483 7.56811C4.90677 7.33617 5.29068 7.33617 5.52262 7.56811L7.03424 9.07973L10.4734 5.64059C10.7053 5.40865 11.0892 5.40865 11.3212 5.64059C11.5531 5.87253 11.5531 6.25644 11.3212 6.48838Z" fill="#5BB59A"/>
</svg>
